PathFileType	4	(X/Y/Z)	P:\Projects\LMB_grand_challenge_database\project_only\opensim\experimental_data\SixthCompetition/DM_smooth1_new.trc
DataRate	CameraRate	NumFrames	NumMarkers	Units	OrigDataRate	OrigDataStartFrame	OrigNumFrames
120	120	4	68	mm	120	231	370
Frame#	Time	Sternum			Neck			R_Shoulder			L_Shoulder			Xiphoid			Thoracic			R_Asis			L_Asis			R_Psis			L_Psis			Lumbar			R_Elbow			R_ElbowMedial			R_ShoulderAnterior			R_ShoulderPosterior			R_Wrist			R_Radius			R_Ulna			L_Elbow			L_ElbowMedial			L_ShoulderAnterior			L_ShoulderPosterior			L_Wrist			L_Ulna			L_Radius			L_Thigh_Superior			L_Thigh_Inferior			L_Thigh_Lateral			L_Knee_Lateral			L_Knee_Medial			L_Patella			L_Shank_Superior			L_Shank_Inferior			L_Shank_Lateral			L_Ankle_Lateral			L_Ankle_Medial			R_Thigh_Superior			R_Thigh_Inferior			R_Thigh_Lateral			R_Knee_Lateral			R_Knee_Medial			R_Patella			R_Shank_Superior			R_Shank_Inferior			R_Shank_Lateral			R_Ankle_Lateral			RankleMedial			R_Heel			R_Toe			R_Midfoot_Medial			R_Midfoot_Lateral			R_Hindfoot			R_Midfoot_Superior			R_ToeMedial			R_ToeLateral			L_Heel			L_Toe			L_Midfoot_Medial			L_Midfoot_Lateral			L_Hindfoot			L_Midfoot_Superior			L_ToeMedial			L_ToeLateral			Oglobal			Sacral			Xglobal			Yglobal			Zglobal			
		X1	Y1	Z1	X2	Y2	Z2	X3	Y3	Z3	X4	Y4	Z4	X5	Y5	Z5	X6	Y6	Z6	X7	Y7	Z7	X8	Y8	Z8	X9	Y9	Z9	X10	Y10	Z10	X11	Y11	Z11	X12	Y12	Z12	X13	Y13	Z13	X14	Y14	Z14	X15	Y15	Z15	X16	Y16	Z16	X17	Y17	Z17	X18	Y18	Z18	X19	Y19	Z19	X20	Y20	Z20	X21	Y21	Z21	X22	Y22	Z22	X23	Y23	Z23	X24	Y24	Z24	X25	Y25	Z25	X26	Y26	Z26	X27	Y27	Z27	X28	Y28	Z28	X29	Y29	Z29	X30	Y30	Z30	X31	Y31	Z31	X32	Y32	Z32	X33	Y33	Z33	X34	Y34	Z34	X35	Y35	Z35	X36	Y36	Z36	X37	Y37	Z37	X38	Y38	Z38	X39	Y39	Z39	X40	Y40	Z40	X41	Y41	Z41	X42	Y42	Z42	X43	Y43	Z43	X44	Y44	Z44	X45	Y45	Z45	X46	Y46	Z46	X47	Y47	Z47	X48	Y48	Z48	X49	Y49	Z49	X50	Y50	Z50	X51	Y51	Z51	X52	Y52	Z52	X53	Y53	Z53	X54	Y54	Z54	X55	Y55	Z55	X56	Y56	Z56	X57	Y57	Z57	X58	Y58	Z58	X59	Y59	Z59	X60	Y60	Z60	X61	Y61	Z61	X62	Y62	Z62	X63	Y63	Z63	X64	Y64	Z64	X65	Y65	Z65	X66	Y66	Z66	X67	Y67	Z67	X68	Y68	Z68	

232	3.025	633.409	1386.06	247.851	470.002	1453.08	261.171	584.668	1398.37	423.634	540.47	1413.3	74.8897	656.12	1211.51	247.966	386.584	1271.62	247.258	560.583	982.7859999999999	378.55	574.1180000000001	976.785	101.989	363.549	1027.06	260.753	367.18	1025.69	182.636	370.026	1075.7	222.663	591.942	1079.09	512.081	-0	0	0	-0	0	0	-0	0	0	687.768	816.72	488.719	685.192	825.061	445.435	642.0890000000001	817.244	502.458	478.568	1084.73	-33.69	-0	0	0	-0	0	0	-0	0	0	515.367	818.063	-34.0153	474.473	833.228	-54.8531	507.952	832.571	10.8271	537.833	815.256	51.6657	643.708	616.779	86.9562	659.954	714.901	114.493	-0	0	0	-0	0	0	706.901	534.553	132.216	642.346	463.512	70.61450000000001	671.818	193.622	63.3261	701.963	325.536	133.259	-0	0	0	-0	0	0	476.59	796.865	384.372	454.507	583.417	349.541	536.742	702.441	370.206	-0	0	0	-0	0	0	520.178	490.697	274.1	387.51	394.034	356.853	345.896	190.036	338.73	431.351	303.264	269.354	-0	0	0	-0	0	0	239.945	63.2276	285.204	541.207	53.1662	286.338	461.239	28.9459	233.535	450.75	28.2149	350.333	340.679	28.7533	337.852	403.762	118.058	287.285	506.307	40.8386	242.775	500.306	40.4725	334.168	631.345	61.5264	120.395	923.069	107.467	85.02160000000001	855.9299999999999	74.57470000000001	144.031	831.843	69.70999999999999	32.2179	728.159	44.3265	52.7105	781.499	148.137	96.6713	894.691	81.9682	131.306	884.527	82.85250000000001	36.1967	-0	0	0	365.364	1026.37	221.694	-200	0	0	-0	0	200	-0	200	0	
233	3.033333	642.852	1384.51	246.821	479.369	1451.75	259.988	594.112	1397.37	422.706	549.2089999999999	1411.78	74.2924	665.477	1210.04	247.294	395.883	1270.45	245.998	569.241	981.7910000000001	378.32	583.697	975.14	101.742	372.649	1025.96	259.752	376.589	1024.45	181.698	379.3	1074.53	221.546	603.312	1078.23	511.329	-0	0	0	-0	0	0	-0	0	0	700.154	816.024	487.645	697.378	824.628	444.136	654.6849999999999	816.745	501.727	485.172	1083.91	-34.6732	-0	0	0	-0	0	0	-0	0	0	518.064	816.486	-35.359	477.39	832.486	-56.3336	510.686	831.085	9.52299	545.582	812.958	50.8765	649.526	613.498	87.27889999999999	666.8440000000001	711.457	114.041	-0	0	0	-0	0	0	715.1660000000001	533.532	134.224	651.0410000000001	461.768	71.2706	694.3049999999999	193.679	62.9934	719.181	326.922	132.572	-0	0	0	-0	0	0	483.102	796.58	384.886	459.258	582.825	349.315	543.715	701.126	369.374	-0	0	0	-0	0	0	524.884	489.447	274.348	390.639	393.84	356.725	347.008	190.226	338.569	433.543	302.416	269.235	-0	0	0	-0	0	0	240.081	63.4683	285.17	540.9109999999999	53.203	286.466	461.221	28.8433	233.069	450.979	28.2565	349.891	340.699	28.6965	337.766	403.816	118.037	286.84	506.259	40.769	242.596	500.076	40.6777	334.275	660.885	59.2314	120.487	949.9349999999999	119.502	83.19459999999999	884.782	83.4944	141.675	859.765	77.25920000000001	30.134	758.15	46.9079	51.5906	806.389	153.257	95.0274	922.144	92.24250000000001	129.833	912.284	93.00230000000001	34.3148	-0	0	0	374.619	1025.2	220.725	-200	0	0	-0	0	200	-0	200	0	
234	3.041667	652.099	1382.93	245.554	488.845	1450.19	258.909	603.529	1396.32	421.687	558.758	1410.06	73.0416	674.696	1208.43	246.521	405.298	1269.15	244.699	578.0650000000001	980.701	378.072	593.304	973.236	101.384	381.883	1024.74	258.78	386.043	1023.02	180.647	388.679	1073.21	220.41	614.5549999999999	1077.4	510.509	-0	0	0	-0	0	0	-0	0	0	712.576	815.429	486.36	709.424	823.966	443.011	667.516	816.333	501.065	491.486	1082.95	-35.4067	-0	0	0	-0	0	0	-0	0	0	520.824	814.864	-36.8143	480.76	831.712	-57.7887	513.482	829.78	8.16168	553.247	810.247	50.3738	653.998	609.045	87.2976	673.76	707.446	113.441	-0	0	0	-0	0	0	723.7670000000001	532.881	136.278	659.9589999999999	460.272	72.10080000000001	716.085	194.55	62.2068	735.518	328.538	132.331	-0	0	0	-0	0	0	490.016	796.128	385.032	464.241	582.296	349.075	551.4690000000001	699.648	368.296	-0	0	0	-0	0	0	528.941	487.897	274.251	393.613	393.761	356.585	348.166	190.397	338.468	435.576	301.711	268.951	-0	0	0	-0	0	0	240.24	63.8181	285.073	540.968	52.8128	286.415	461.266	28.4662	232.978	451.041	28.0501	349.802	340.803	28.7837	337.723	404.09	117.88	286.651	506.335	40.4534	242.494	500.151	40.4332	334.209	689.197	58.1878	119.889	975.1180000000001	132.304	80.9096	911.803	93.0202	139.918	886.5599999999999	85.3965	28.5137	787.026	50.5919	50.4188	830.205	159.081	93.501	949.614	104.059	127.683	938.638	103.656	32.5538	-0	0	0	383.963	1023.88	219.714	-200	0	0	-0	0	200	-0	200	0	
235	3.05	661.52	1381.4	244.428	498.272	1448.83	257.711	613.106	1395.16	420.67	568.5359999999999	1408.42	72.0157	683.981	1206.82	245.908	414.603	1267.84	243.412	586.801	979.588	377.801	603.178	971.657	101.001	391.117	1023.31	257.577	395.578	1021.37	179.427	397.994	1071.68	219.12	625.67	1076.55	509.732	-0	0	0	-0	0	0	-0	0	0	725.274	814.932	485.068	721.4349999999999	823.347	441.636	680.234	815.936	500.365	498.3	1081.79	-35.9756	-0	0	0	-0	0	0	-0	0	0	523.686	813.314	-38.1288	483.918	830.893	-59.3755	516.742	828.353	6.72378	560.9349999999999	807.1559999999999	49.9389	659.799	605.419	86.98480000000001	680.412	703.277	112.802	-0	0	0	-0	0	0	732.716	533.052	138.589	670.112	459.086	72.9337	737.182	195.847	62.204	751.385	330.634	132.43	-0	0	0	-0	0	0	485.693	797.893	395.205	469.534	581.657	349.174	556.117	698.1079999999999	369.916	-0	0	0	-0	0	0	533.413	486.392	274.527	396.953	393.587	356.425	349.266	190.756	338.258	438.593	301.312	268.263	-0	0	0	-0	0	0	240.414	64.1883	285.017	541.032	52.443	286.342	461.328	28.0577	232.981	451.097	27.8306	349.804	340.844	28.8698	337.738	404.286	117.677	286.53	506.386	40.0547	242.381	500.322	40.24	333.973	716.872	57.7426	119.451	998.349	145.381	78.4494	937.598	103.576	138.076	912.183	94.0936	26.8543	814.35	54.4297	49.5731	852.809	165.442	91.7109	974.598	116.005	125.572	963.191	115.277	30.3382	-0	0	0	393.348	1022.34	218.502	-200	0	0	-0	0	200	-0	200	0	
